<?xml version="1.0" encoding="UTF-8"?>
<svg id="Layer_1" data-name="Layer 1" xmlns="http://www.w3.org/2000/svg" xmlns:xlink="http://www.w3.org/1999/xlink" version="1.1" viewBox="0 0 133.98 167.11">
  <defs>
    <style>
      .cls-1 {
        fill: url(#New_Gradient_Swatch-2);
      }

      .cls-1, .cls-2, .cls-3 {
        stroke-width: 0px;
      }

      .cls-2 {
        fill: url(#New_Gradient_Swatch-3);
      }

      .cls-3 {
        fill: url(#New_Gradient_Swatch);
      }
    </style>
    <linearGradient id="New_Gradient_Swatch" data-name="New Gradient Swatch" x1="6.56" y1="14.07" x2="70.96" y2="73.66" gradientTransform="translate(27.55)" gradientUnits="userSpaceOnUse">
      <stop offset="0" stop-color="#fdc363"/>
      <stop offset=".75" stop-color="#e2a740"/>
      <stop offset=".88" stop-color="#e3a13c"/>
      <stop offset="1" stop-color="#e59736"/>
    </linearGradient>
    <linearGradient id="New_Gradient_Swatch-2" data-name="New Gradient Swatch" x1="-17.9" y1="73.47" x2="83.84" y2="167.6" xlink:href="#New_Gradient_Swatch"/>
    <linearGradient id="New_Gradient_Swatch-3" data-name="New Gradient Swatch" x1="-3.9" y1="121.29" x2="91.51" y2="209.57" xlink:href="#New_Gradient_Swatch"/>
  </defs>
  <path class="cls-3" d="M66.31,0C42.08,0,22.44,19.64,22.44,43.87c0,24.23,19.64,43.87,43.87,43.87s43.87-19.64,43.87-43.87C110.18,19.64,90.54,0,66.31,0ZM73.22,30.05c3.81,0,6.91,3.09,6.91,6.91,0,3.81-3.09,6.91-6.91,6.91s-6.91-3.09-6.91-6.91c0-3.81,3.09-6.91,6.91-6.91ZM78.54,64.71h-24.46c-3.31,0-6-2.69-6-6v-29.68c0-3.31,2.69-6,6-6h0c3.31,0,6,2.69,6,6v22.21c0,.82.66,1.48,1.48,1.48h16.98c3.31,0,6,2.69,6,6,0,3.31-2.69,6-6,6Z"/>
  <path class="cls-1" d="M9.88,131.67h-5.44s0-21,0-21c0-1.16-.92-1.98-2.22-1.98S0,109.51,0,110.67v22.53c0,1.16.92,1.98,2.22,1.98h7.66c1.13,0,1.97-.75,1.97-1.75,0-1.01-.84-1.75-1.97-1.75ZM19.13,115.85c-3.73,0-6.07,2.05-6.07,5.22v9.33c0,3.17,2.34,5.22,6.07,5.22s6.07-2.05,6.07-5.22v-9.33c0-3.17-2.34-5.22-6.07-5.22ZM20.93,130.74c0,1.01-.63,1.64-1.8,1.64s-1.8-.63-1.8-1.64v-10c0-1.01.63-1.64,1.8-1.64s1.8.63,1.8,1.64v10ZM39.85,115.14c-.29,0-.71.04-1.13.11-1.59.3-2.8.6-5.19.6-4.06,0-5.99,2.35-5.99,5.52v2.65c0,1.6.63,3.17,1.93,4.22-1,.52-2.01,1.53-2.01,3.06,0,1.23.67,2.09,1.67,2.57-1.42.63-2.64,1.75-2.64,3.51,0,2.69,2.22,4.22,6.82,4.22,4.44,0,7.7-2.09,7.7-5.6,0-3.17-2.22-4.81-5.65-4.81h-2.68c-.71,0-1.21-.3-1.21-.93,0-.34.13-.63.29-.9.59.11,1.17.19,1.88.19,4.14,0,6.11-2.57,6.11-5.52v-2.54c0-1.45-.38-2.35-1.17-2.87,2.05-.04,2.8-.52,2.8-1.75,0-1.01-.46-1.72-1.55-1.72ZM31.77,134.35h2.72c1.51,0,2.39.67,2.39,1.9,0,1.34-1.21,2.31-3.31,2.31-1.76,0-2.93-.56-2.93-2.01,0-.97.59-1.75,1.13-2.2ZM35.63,124.43c0,1.42-.84,2.01-1.97,2.01s-1.97-.6-1.97-2.01v-3.47c0-1.42.84-2.01,1.97-2.01s1.97.6,1.97,2.01v3.47ZM48.56,115.85c-3.73,0-6.07,2.05-6.07,5.22v9.33c0,3.17,2.34,5.22,6.07,5.22s6.07-2.05,6.07-5.22v-9.33c0-3.17-2.34-5.22-6.07-5.22ZM50.36,130.74c0,1.01-.63,1.64-1.8,1.64s-1.8-.63-1.8-1.64v-10c0-1.01.63-1.64,1.8-1.64s1.8.63,1.8,1.64v10ZM69.12,131.67h-5.44s0-21,0-21c0-1.16-.92-1.98-2.22-1.98s-2.22.82-2.22,1.98v22.53c0,1.16.92,1.98,2.22,1.98h7.66c1.13,0,1.97-.75,1.97-1.75s-.84-1.75-1.97-1.75ZM78.37,115.85c-3.73,0-6.07,2.05-6.07,5.22v9.33c0,3.17,2.34,5.22,6.07,5.22s6.07-2.05,6.07-5.22v-9.33c0-3.17-2.34-5.22-6.07-5.22ZM80.17,130.74c0,1.01-.63,1.64-1.8,1.64s-1.8-.63-1.8-1.64v-10c0-1.01.63-1.64,1.8-1.64s1.8.63,1.8,1.64v10ZM99.09,115.14c-.29,0-.71.04-1.13.11-1.59.3-2.8.6-5.19.6-4.06,0-5.99,2.35-5.99,5.52v2.65c0,1.6.63,3.17,1.93,4.22-1,.52-2.01,1.53-2.01,3.06,0,1.23.67,2.09,1.67,2.57-1.42.63-2.64,1.75-2.64,3.51,0,2.69,2.22,4.22,6.82,4.22s7.7-2.09,7.7-5.6c0-3.17-2.22-4.81-5.65-4.81h-2.68c-.71,0-1.21-.3-1.21-.93,0-.34.13-.63.29-.9.59.11,1.17.19,1.88.19,4.14,0,6.11-2.57,6.11-5.52v-2.54c0-1.45-.38-2.35-1.17-2.87,2.05-.04,2.8-.52,2.8-1.75,0-1.01-.46-1.72-1.55-1.72ZM91.01,134.35h2.72c1.51,0,2.39.67,2.39,1.9,0,1.34-1.21,2.31-3.31,2.31-1.76,0-2.93-.56-2.93-2.01,0-.97.59-1.75,1.13-2.2ZM94.86,124.43c0,1.42-.84,2.01-1.97,2.01s-1.97-.6-1.97-2.01v-3.47c0-1.42.84-2.01,1.97-2.01s1.97.6,1.97,2.01v3.47ZM104.32,108.77c-1.59,0-2.51,1.04-2.51,2.31s.92,2.28,2.51,2.28,2.51-1.01,2.51-2.28c0-1.27-.92-2.31-2.51-2.31ZM104.32,116c-1.3,0-2.14.75-2.14,1.9v15.67c0,1.16.84,1.9,2.14,1.9s2.13-.75,2.13-1.9v-15.67c0-1.16-.84-1.9-2.13-1.9ZM117.34,125.44l3.47-6.79c.17-.34.33-.67.33-1.04,0-.97-1-1.68-2.14-1.68s-1.59.41-1.97,1.16l-3.81,7.87v-14.29c0-1.16-.84-1.9-2.13-1.9s-2.14.75-2.14,1.9v22.9c0,1.16.84,1.9,2.14,1.9s2.13-.75,2.13-1.9v-7.57s4.1,8.36,4.1,8.36c.38.75.96,1.12,1.84,1.12,1.09,0,2.09-.56,2.09-1.79,0-.34-.08-.67-.29-1.08l-3.64-7.16ZM128.94,123.91c-1.8-1.12-2.72-1.83-2.72-3.39,0-1.01.5-1.64,1.59-1.64s1.59.67,1.59,1.6v.6c0,.97.63,1.72,2.01,1.72s2.01-.82,2.01-1.72v-.45c0-2.87-1.93-4.77-5.61-4.77-3.43,0-5.69,1.9-5.69,4.96,0,3.02,2.09,4.66,4.98,6.38,1.72,1.01,2.68,1.94,2.68,3.51,0,1.04-.5,1.9-1.84,1.9-1.17,0-1.8-.75-1.8-1.86v-.34c0-1.12-.75-1.79-2.01-1.79-1.17,0-2.01.6-2.01,1.87v.52c0,2.72,2.51,4.63,5.74,4.63,3.89,0,6.03-2.42,6.03-5.3,0-3.36-2.43-4.85-4.94-6.42Z"/>
  <path class="cls-2" d="M39.68,159.59c-.76,0-1.24.58-1.24,1.26s.48,1.26,1.24,1.26,1.24-.58,1.24-1.26c0-.68-.48-1.26-1.24-1.26ZM1.24,154.09H0v12.77h4.81v-1.16H1.24s0-11.61,0-11.61ZM9.19,153.85h-.11c-1.86,0-2.8,1.13-2.8,3.57v6.11c0,2.44.86,3.59,2.78,3.59h.15c1.92,0,2.78-1.15,2.78-3.59v-6.11c0-2.44-.94-3.57-2.8-3.57ZM10.75,163.66c0,1.65-.47,2.37-1.62,2.37s-1.62-.71-1.62-2.37v-6.41c0-1.67.47-2.33,1.62-2.33s1.62.66,1.62,2.33v6.41ZM32.39,159.82c-1.62-1.16-1.88-1.52-1.88-3.06,0-1.3.39-1.84,1.37-1.84,1.05,0,1.47.6,1.47,2.42v.71h1.24v-.68c0-2.31-.81-3.53-2.55-3.53h-.11c-1.82,0-2.59,1.01-2.59,3.08,0,2.05.71,2.72,2.24,3.85,1.6,1.16,1.86,1.5,1.86,3.14,0,1.48-.28,2.1-1.41,2.1-1.03,0-1.48-.58-1.48-2.35v-.81h-1.24v.75c0,2.39.75,3.49,2.59,3.49h.15c1.86,0,2.59-1,2.59-3.29,0-2.22-.58-2.8-2.24-4ZM17.04,153.85h-.13c-1.78,0-2.71,1.13-2.71,3.57v6.11c0,2.44.85,3.59,2.69,3.59h.17c1.77,0,2.57-1.15,2.57-3.59v-2.87h-2.67v1.16h1.52s0,1.84,0,1.84c0,1.65-.43,2.37-1.5,2.37s-1.54-.71-1.54-2.37v-6.41c0-1.65.47-2.33,1.54-2.33s1.5.68,1.5,2.33v.98h1.15v-.81c0-2.44-.85-3.57-2.59-3.57ZM24.56,153.85h-.11c-1.86,0-2.8,1.13-2.8,3.57v6.11c0,2.44.86,3.59,2.78,3.59h.15c1.92,0,2.78-1.15,2.78-3.59v-6.11c0-2.44-.94-3.57-2.8-3.57ZM26.12,163.66c0,1.65-.47,2.37-1.62,2.37s-1.62-.71-1.62-2.37v-6.41c0-1.67.47-2.33,1.62-2.33s1.62.66,1.62,2.33v6.41ZM91.36,163.9h-.04s-3.21-9.81-3.21-9.81h-1.31v12.77h1.15v-9.81s.04,0,.04,0l3.19,9.81h1.33v-12.77h-1.15v9.81ZM83.04,166.87h1.24v-12.77h-1.24v12.77ZM57.91,157.66c0-2.44-1.01-3.57-3.44-3.57h-2.1v12.77h1.24v-5.62s1.43,0,1.43,0l1.63,5.62h1.31s-1.73-5.8-1.73-5.8c1.03-.47,1.65-1.47,1.65-3.4ZM54.57,160.12h-.96s0-4.87,0-4.87h.88c1.52,0,2.12.62,2.12,2.44,0,1.75-.56,2.42-2.05,2.42ZM97.69,153.85h-.13c-1.78,0-2.71,1.13-2.71,3.57v6.11c0,2.44.85,3.59,2.69,3.59h.17c1.77,0,2.57-1.15,2.57-3.59v-2.87h-2.67v1.16h1.52s0,1.84,0,1.84c0,1.65-.43,2.37-1.5,2.37s-1.54-.71-1.54-2.37v-6.41c0-1.65.47-2.33,1.54-2.33s1.5.68,1.5,2.33v.98h1.15v-.81c0-2.44-.85-3.57-2.59-3.57ZM77.23,154.09h-2.16v12.77h2.26c2.55,0,3.4-1.15,3.4-3.93v-4.94c0-2.87-.92-3.91-3.49-3.91ZM79.48,163.07c0,2.01-.51,2.61-2.25,2.61h-.92s0-10.43,0-10.43h.9c1.77,0,2.27.64,2.27,2.69v5.13ZM48.27,160.35v-.08c1.13-.28,1.77-1.05,1.77-2.87.02-2.18-1.13-3.31-3.44-3.31h-1.88v12.77h2.1c2.35,0,3.42-1.03,3.42-3.42,0-1.82-.58-2.84-1.97-3.1ZM45.96,155.26h.66c1.6,0,2.18.68,2.18,2.25s-.62,2.29-1.97,2.29h-.86s0-4.55,0-4.55ZM46.79,165.7h-.83s0-4.79,0-4.79h.85c1.56,0,2.16.69,2.16,2.4,0,1.79-.58,2.39-2.18,2.39ZM71.42,163.9h-.04s-3.21-9.81-3.21-9.81h-1.32v12.77h1.15v-9.81s.04,0,.04,0l3.19,9.81h1.33v-12.77h-1.15v9.81ZM61.26,154.02l-2.33,12.85h1.16s.58-3.38.58-3.38h2.8s.56,3.38.56,3.38h1.26s-2.33-12.85-2.33-12.85h-1.71ZM60.88,162.32l1.15-7.25h.07s1.18,7.25,1.18,7.25h-2.4ZM132,160.35v-.08c1.13-.28,1.77-1.05,1.77-2.87.02-2.18-1.13-3.31-3.44-3.31h-1.88v12.77h2.1c2.35,0,3.42-1.03,3.42-3.42,0-1.82-.58-2.84-1.97-3.1ZM129.69,155.26h.66c1.6,0,2.18.68,2.18,2.25,0,1.54-.62,2.29-1.97,2.29h-.86s0-4.55,0-4.55ZM130.52,165.7h-.83s0-4.79,0-4.79h.85c1.56,0,2.16.69,2.16,2.4,0,1.79-.58,2.39-2.18,2.39ZM121.48,166.87h4.92v-1.16h-3.72s0-4.75,0-4.75h3.17v-1.16h-3.17s0-4.53,0-4.53h3.72v-1.16h-4.92v12.77ZM117.24,165.22l-1.43-11.12h-1.33s-1.47,11.12-1.47,11.12l-1.37-11.12h-1.26s1.73,12.77,1.73,12.77h1.65s1.33-10.46,1.33-10.46l1.33,10.46h1.65s1.75-12.77,1.75-12.77h-1.16s-1.43,11.12-1.43,11.12ZM105.33,159.59c-.76,0-1.24.58-1.24,1.26,0,.68.48,1.26,1.24,1.26s1.24-.58,1.24-1.26c0-.68-.48-1.26-1.24-1.26Z"/>
</svg>